<svg width="437" height="219" viewBox="0 0 437 219" fill="none" xmlns="http://www.w3.org/2000/svg">
<path d="M124.685 51.15C124.025 51.15 123.219 50.71 122.265 49.83C121.385 48.95 120.652 48.29 120.065 47.85C119.919 46.8967 119.662 46.0534 119.295 45.32C118.929 44.5134 118.745 43.67 118.745 42.79C118.745 41.47 119.222 39.93 120.175 38.17C121.202 36.3367 122.485 34.54 124.025 32.78C125.639 31.02 127.252 29.5534 128.865 28.38C130.552 27.2067 132.055 26.62 133.375 26.62V26.4C134.402 26.62 135.355 27.28 136.235 28.38C137.189 29.48 137.665 30.5067 137.665 31.46C137.665 32.34 137.115 33.2567 136.015 34.21C134.989 35.09 133.705 35.9334 132.165 36.74C130.699 37.4734 129.232 38.06 127.765 38.5C126.372 38.94 125.272 39.16 124.465 39.16V39.38C123.952 40.1867 123.439 41.2134 122.925 42.46C122.485 43.6334 122.265 44.7334 122.265 45.76C122.265 46.1267 122.375 46.53 122.595 46.97C123.109 47.3367 123.769 47.52 124.575 47.52C125.382 47.4467 126.042 47.4467 126.555 47.52L126.665 47.63L126.995 47.08C127.949 47.0067 128.865 46.7867 129.745 46.42V45.76H130.405V45.43L130.845 45.54C131.212 45.3934 131.469 45.2467 131.615 45.1C131.835 44.88 132.092 44.6967 132.385 44.55L133.045 44.88V44.77L135.025 42.9H135.135L135.465 43.12V43.01C136.419 42.13 137.445 41.3234 138.545 40.59C139.645 39.8567 140.452 38.9034 140.965 37.73L142.175 36.85L142.395 37.07C142.395 37.5834 142.212 38.06 141.845 38.5C141.479 38.94 141.039 39.2334 140.525 39.38C139.939 40.7734 139.059 41.9467 137.885 42.9C136.785 43.8534 135.649 44.8434 134.475 45.87H134.145L134.035 46.42C132.642 47.3734 131.175 48.4 129.635 49.5C128.169 50.6 126.519 51.15 124.685 51.15ZM126.775 37.07H126.995V36.85C127.509 36.7034 128.389 36.2634 129.635 35.53C130.955 34.7967 132.202 34.0267 133.375 33.22C134.549 32.34 135.172 31.7167 135.245 31.35H135.355L135.245 30.8L135.355 30.25C135.282 30.25 135.135 30.25 134.915 30.25C134.695 30.1767 134.512 30.14 134.365 30.14C133.412 30.8 132.459 31.4234 131.505 32.01C130.552 32.5967 129.599 33.1834 128.645 33.77H128.425L128.315 34.65C127.875 34.9434 127.545 35.31 127.325 35.75C127.105 36.1167 126.922 36.5567 126.775 37.07ZM143.495 36.74L142.835 36.52L142.725 35.86L143.825 35.53L143.935 35.86L143.495 36.74Z" fill="#EAEAEA"/>
<path d="M104.474 56.43C103.08 56.43 102.054 56.0266 101.394 55.22C100.807 54.4133 100.514 53.35 100.514 52.03C100.514 51.59 100.624 50.82 100.844 49.72C101.064 48.5466 101.357 47.3 101.724 45.98C102.164 44.66 102.604 43.5233 103.044 42.57C103.557 41.6166 104.07 41.14 104.584 41.14C104.73 40.3333 105.024 39.3066 105.464 38.06C105.977 36.8133 106.6 35.8966 107.334 35.31L107.994 35.09V34.87L109.094 33.66C109.314 33.3666 109.424 33.2566 109.424 33.33C109.497 33.33 109.534 33.33 109.534 33.33C109.534 32.67 109.644 32.01 109.864 31.35C110.67 30.8366 111.257 30.14 111.624 29.26L111.734 28.49H111.954L114.264 23.87V23.76C114.264 23.3933 114.41 23.1366 114.704 22.99C115.07 22.77 115.18 22.5133 115.034 22.22C115.62 21.1933 116.537 19.8 117.784 18.04C119.104 16.2066 120.497 14.3 121.964 12.32C123.504 10.34 124.97 8.50664 126.364 6.81997C127.757 5.13331 128.894 3.9233 129.774 3.18997L130.324 2.96997L131.094 1.42997C131.68 1.28331 132.304 1.0633 132.964 0.76997C133.624 0.403304 134.32 0.219971 135.054 0.219971C135.714 0.219971 136.52 0.403304 137.474 0.76997C138.5 1.0633 139.38 1.50331 140.114 2.08997C140.847 2.67664 141.177 3.37331 141.104 4.17997L140.994 5.16997L140.884 5.38997C140.224 6.56331 139.344 7.55331 138.244 8.35997C137.584 10.56 136.374 12.87 134.614 15.29C132.854 17.6366 130.874 19.9466 128.674 22.22C126.474 24.4933 124.31 26.5833 122.184 28.49C120.057 30.3966 118.26 31.9733 116.794 33.22C115.4 34.4666 114.63 35.2733 114.484 35.64C114.044 35.7133 113.384 36.08 112.504 36.74C111.697 37.3266 110.927 37.9866 110.194 38.72C109.534 39.4533 109.204 40.0033 109.204 40.37L108.764 41.36C106.71 42.6066 105.207 44.2933 104.254 46.42C103.374 48.5466 102.934 50.7833 102.934 53.13C102.934 54.1566 103.19 54.8166 103.704 55.11C104.217 55.4033 104.51 55.8433 104.584 56.43H104.474ZM113.384 33.99C114.41 33.1833 115.84 32.01 117.674 30.47C119.507 28.8566 121.45 27.06 123.504 25.08C125.63 23.1 127.61 21.0466 129.444 18.92C131.35 16.7933 132.89 14.7766 134.064 12.87C135.237 10.9633 135.824 9.31331 135.824 7.91998C135.824 7.77331 135.75 7.58997 135.604 7.36997C135.53 7.07664 135.457 6.85664 135.384 6.70997H135.274C134.834 6.70997 133.99 7.29664 132.744 8.46997C131.57 9.56997 130.14 11.0733 128.454 12.98C126.84 14.8133 125.154 16.83 123.394 19.03C121.634 21.1566 119.984 23.2466 118.444 25.3C116.977 27.3533 115.767 29.15 114.814 30.69C113.86 32.23 113.384 33.33 113.384 33.99Z" fill="#EAEAEA"/>
<path d="M91.6345 55C90.4612 55 89.5078 54.4867 88.7745 53.46C88.0412 52.5067 87.6745 51.4434 87.6745 50.27C87.6745 49.39 87.9312 48.07 88.4445 46.31C89.0312 44.4767 89.7278 42.57 90.5345 40.59C91.3412 38.5367 92.1845 36.7034 93.0645 35.09C93.9445 33.4767 94.7512 32.4134 95.4845 31.9C96.5112 30.2867 97.4279 28.7834 98.2345 27.39C97.0612 27.61 95.8878 27.8667 94.7145 28.16C93.5412 28.38 92.4412 28.71 91.4145 29.15C90.9012 29.81 90.3145 30.14 89.6545 30.14C89.4345 29.9934 89.1778 29.8467 88.8845 29.7C88.5912 29.5534 88.3345 29.37 88.1145 29.15L88.2245 28.93H88.1145V28.71C88.1145 28.3434 88.0412 28.0134 87.8945 27.72C87.8212 27.3534 87.7478 27.0234 87.6745 26.73C87.6012 26.6567 87.5645 26.4734 87.5645 26.18C87.5645 25.2267 88.0045 24.6034 88.8845 24.31C89.8378 24.0167 90.7912 23.87 91.7445 23.87C93.1378 23.87 94.0912 23.98 94.6045 24.2L95.7045 23.98H98.4545C98.9678 23.98 99.4445 23.98 99.8845 23.98C100.325 23.98 100.765 23.9434 101.205 23.87L101.645 23.21L101.535 22.77C101.755 22.2567 102.231 21.4134 102.965 20.24C103.698 19.0667 104.468 17.82 105.275 16.5C106.081 15.18 106.778 14.0434 107.365 13.09C108.025 12.0634 108.355 11.55 108.355 11.55C108.355 11.11 108.721 10.8534 109.455 10.78C110.188 10.7067 110.665 10.67 110.885 10.67C111.691 10.67 112.791 10.9267 114.185 11.44C115.578 11.88 116.275 12.65 116.275 13.75C116.275 14.41 116.018 14.96 115.505 15.4C114.991 15.7667 114.441 16.0234 113.855 16.17V16.28C113.855 16.72 113.525 17.2334 112.865 17.82C112.278 18.4067 111.581 18.92 110.775 19.36C109.968 19.8 109.345 20.0934 108.905 20.24C108.685 20.3134 108.391 20.6067 108.025 21.12C107.731 21.56 107.511 21.89 107.365 22.11V22.55C107.071 22.77 106.741 23.0267 106.375 23.32C106.081 23.54 105.825 23.8334 105.605 24.2C105.971 24.2734 106.338 24.31 106.705 24.31C107.071 24.31 107.438 24.31 107.805 24.31C108.391 24.31 108.941 24.31 109.455 24.31C110.041 24.31 110.591 24.3467 111.105 24.42L114.515 24.86C113.635 25.5934 112.645 26.0334 111.545 26.18C110.445 26.2534 109.308 26.29 108.135 26.29C107.035 26.2167 105.971 26.4 104.945 26.84C104.431 26.9867 103.735 27.4267 102.855 28.16C102.048 28.8934 101.315 29.7 100.655 30.58C99.9945 31.3867 99.6645 32.0834 99.6645 32.67L97.1345 36.08C96.4012 36.4467 96.0345 36.9967 96.0345 37.73C96.0345 38.4634 95.6312 38.83 94.8245 38.83L93.2845 42.35C93.2112 42.79 93.1012 43.4867 92.9545 44.44C92.8812 45.32 92.5878 45.8334 92.0745 45.98C92.0745 46.9334 92.0378 47.8867 91.9645 48.84C91.8912 49.72 91.8545 50.6 91.8545 51.48L92.0745 51.92H92.9545C94.4212 50.4534 95.9245 49.06 97.4645 47.74C99.0778 46.3467 100.581 44.88 101.975 43.34L102.525 43.12H102.745L103.405 42.24L103.845 42.02L103.735 41.91L104.395 41.3601C104.981 40.2601 105.935 39.3434 107.255 38.61L107.365 38.83C107.365 39.1967 106.888 40.0034 105.935 41.25C104.981 42.4234 103.771 43.8167 102.305 45.43C100.911 46.97 99.4445 48.4734 97.9045 49.94C96.4379 51.4067 95.1179 52.6167 93.9445 53.57C92.7712 54.5234 92.0012 55 91.6345 55Z" fill="#EAEAEA"/>
<path d="M76.5955 55C75.4221 55 74.4688 54.4867 73.7355 53.46C73.0021 52.5067 72.6355 51.4434 72.6355 50.27C72.6355 49.39 72.8921 48.07 73.4055 46.31C73.9921 44.4767 74.6888 42.57 75.4955 40.59C76.3021 38.5367 77.1455 36.7034 78.0255 35.09C78.9055 33.4767 79.7121 32.4134 80.4455 31.9C81.4721 30.2867 82.3888 28.7834 83.1955 27.39C82.0221 27.61 80.8488 27.8667 79.6755 28.16C78.5021 28.38 77.4021 28.71 76.3755 29.15C75.8621 29.81 75.2755 30.14 74.6155 30.14C74.3955 29.9934 74.1388 29.8467 73.8455 29.7C73.5521 29.5534 73.2955 29.37 73.0755 29.15L73.1855 28.93H73.0755V28.71C73.0755 28.3434 73.0021 28.0134 72.8555 27.72C72.7821 27.3534 72.7088 27.0234 72.6355 26.73C72.5621 26.6567 72.5255 26.4734 72.5255 26.18C72.5255 25.2267 72.9655 24.6034 73.8455 24.31C74.7988 24.0167 75.7521 23.87 76.7055 23.87C78.0988 23.87 79.0521 23.98 79.5655 24.2L80.6655 23.98H83.4155C83.9288 23.98 84.4055 23.98 84.8455 23.98C85.2855 23.98 85.7255 23.9434 86.1655 23.87L86.6055 23.21L86.4955 22.77C86.7155 22.2567 87.1921 21.4134 87.9255 20.24C88.6588 19.0667 89.4288 17.82 90.2355 16.5C91.0421 15.18 91.7388 14.0434 92.3255 13.09C92.9855 12.0634 93.3155 11.55 93.3155 11.55C93.3155 11.11 93.6821 10.8534 94.4155 10.78C95.1488 10.7067 95.6255 10.67 95.8455 10.67C96.6521 10.67 97.7521 10.9267 99.1455 11.44C100.539 11.88 101.235 12.65 101.235 13.75C101.235 14.41 100.979 14.96 100.465 15.4C99.9521 15.7667 99.4021 16.0234 98.8155 16.17V16.28C98.8155 16.72 98.4855 17.2334 97.8255 17.82C97.2388 18.4067 96.5421 18.92 95.7355 19.36C94.9288 19.8 94.3055 20.0934 93.8655 20.24C93.6455 20.3134 93.3521 20.6067 92.9855 21.12C92.6921 21.56 92.4721 21.89 92.3255 22.11V22.55C92.0321 22.77 91.7021 23.0267 91.3355 23.32C91.0421 23.54 90.7855 23.8334 90.5655 24.2C90.9321 24.2734 91.2988 24.31 91.6655 24.31C92.0321 24.31 92.3988 24.31 92.7655 24.31C93.3521 24.31 93.9021 24.31 94.4155 24.31C95.0021 24.31 95.5521 24.3467 96.0655 24.42L99.4755 24.86C98.5955 25.5934 97.6055 26.0334 96.5055 26.18C95.4055 26.2534 94.2688 26.29 93.0955 26.29C91.9955 26.2167 90.9321 26.4 89.9055 26.84C89.3921 26.9867 88.6955 27.4267 87.8155 28.16C87.0088 28.8934 86.2755 29.7 85.6155 30.58C84.9555 31.3867 84.6255 32.0834 84.6255 32.67L82.0955 36.08C81.3621 36.4467 80.9955 36.9967 80.9955 37.73C80.9955 38.4634 80.5921 38.83 79.7855 38.83L78.2455 42.35C78.1721 42.79 78.0621 43.4867 77.9155 44.44C77.8421 45.32 77.5488 45.8334 77.0355 45.98C77.0355 46.9334 76.9988 47.8867 76.9255 48.84C76.8521 49.72 76.8155 50.6 76.8155 51.48L77.0355 51.92H77.9155C79.3821 50.4534 80.8855 49.06 82.4255 47.74C84.0388 46.3467 85.5421 44.88 86.9355 43.34L87.4855 43.12H87.7055L88.3655 42.24L88.8055 42.02L88.6955 41.91L89.3555 41.3601C89.9421 40.2601 90.8955 39.3434 92.2155 38.61L92.3255 38.83C92.3255 39.1967 91.8488 40.0034 90.8955 41.25C89.9421 42.4234 88.7321 43.8167 87.2655 45.43C85.8721 46.97 84.4055 48.4734 82.8655 49.94C81.3988 51.4067 80.0788 52.6167 78.9055 53.57C77.7321 54.5234 76.9621 55 76.5955 55Z" fill="#EAEAEA"/>
<path d="M77.7797 22.88C77.5597 22.88 76.973 22.8066 76.0197 22.66C75.1397 22.44 74.6997 22.1833 74.6997 21.89C74.6997 20.79 75.2497 19.9833 76.3497 19.47C77.523 18.9566 78.4763 18.4433 79.2097 17.93H79.4297C80.4563 17.1233 81.6663 16.5733 83.0597 16.28C84.5263 15.9866 85.883 15.8033 87.1297 15.73L87.0197 15.84C85.6263 16.28 84.3797 17.0866 83.2797 18.26C82.1797 19.36 81.153 20.4233 80.1997 21.45C79.3197 22.4033 78.513 22.88 77.7797 22.88ZM63.5897 53.46L61.8297 50.93C61.7563 50.4167 61.6463 49.94 61.4997 49.5C61.353 48.9867 61.2797 48.4733 61.2797 47.96C61.2797 47.3 61.3163 46.64 61.3897 45.98C61.463 45.32 61.5363 44.66 61.6097 44L62.3797 42.13L62.2697 42.02C62.6363 41.14 63.003 40.0033 63.3697 38.61C63.7363 37.2166 64.1763 35.8233 64.6897 34.43C65.2763 32.9633 65.973 31.7533 66.7797 30.8C67.5863 29.7733 68.5763 29.26 69.7497 29.26C70.5563 29.26 71.473 29.5533 72.4997 30.14C73.5263 30.7266 74.0397 31.4966 74.0397 32.45C74.0397 32.8166 73.7463 33.4766 73.1597 34.43C72.6463 35.3833 72.023 36.4466 71.2897 37.62C70.5563 38.72 69.823 39.71 69.0897 40.59C68.4297 41.3966 67.953 41.8733 67.6597 42.02C66.9997 43.1933 66.083 44.55 64.9097 46.09C63.7363 47.63 63.1497 49.06 63.1497 50.38C63.1497 50.8933 63.223 51.37 63.3697 51.81C63.5897 52.25 63.6997 52.7266 63.6997 53.24L63.5897 53.46Z" fill="#EAEAEA"/>
<path d="M61.73 61.05C60.9234 59.8033 60.2634 58.5933 59.75 57.42C59.2367 56.32 58.6134 55.2933 57.88 54.34C57.1467 53.3867 56.01 52.58 54.47 51.92L53.92 51.37C51.28 50.93 48.64 50.3433 46 49.61C43.4334 48.8767 40.7934 48.51 38.08 48.51C36.4667 48.51 34.8167 48.5467 33.13 48.62C31.5167 48.62 29.8667 48.62 28.18 48.62C27.3734 48.62 26.53 48.62 25.65 48.62C24.8434 48.62 24.0367 48.5833 23.23 48.51C22.4234 49.39 21.3234 50.49 19.93 51.81C18.5367 53.13 17.07 54.3033 15.53 55.33C13.99 56.3567 12.5967 56.9067 11.35 56.98C10.5434 57.42 9.66336 57.7133 8.71002 57.86C7.83002 58.0067 6.95002 58.08 6.07002 58.08C4.53002 58.08 3.28336 57.7867 2.33002 57.2C1.37669 56.6133 0.900024 55.4767 0.900024 53.79C0.900024 50.93 1.78002 48.73 3.54002 47.19C5.37336 45.65 7.61002 44.55 10.25 43.89C12.89 43.1567 15.5667 42.7533 18.28 42.68C21.0667 42.5333 23.3767 42.4967 25.21 42.57C27.4834 39.7833 29.4267 36.85 31.04 33.77C32.7267 30.6167 34.3767 27.4633 35.99 24.31L36.98 23.76L36.43 23.1L37.75 21.45L37.2 20.35L38.52 19.91L38.08 19.69L39.29 18.81L39.07 18.26L39.73 18.15L39.95 17.38L40.83 15.95C41.1967 15.5833 41.5267 15.2167 41.82 14.85C42.1867 14.41 42.5167 14.0067 42.81 13.64L42.04 12.76C42.3334 12.1733 42.6267 11.5867 42.92 11C43.2134 10.34 43.5067 9.75333 43.8 9.24L43.69 9.13C43.69 8.54334 44.13 7.81 45.01 6.93C45.9634 5.97667 47.0634 5.02333 48.31 4.07C49.63 3.04333 50.8767 2.16334 52.05 1.43C53.2234 0.696671 54.0667 0.220002 54.58 0C55.7534 0.66 56.8534 0.990002 57.88 0.990002C58.9067 0.990002 59.9334 1.1 60.96 1.32C62.06 1.46667 63.1967 2.23667 64.37 3.63L64.04 4.40001C63.7467 4.18 63.4167 3.99667 63.05 3.85C62.7567 3.63 62.4267 3.52 62.06 3.52L55.46 6.38L54.58 8.36C53.7734 9.75334 52.5634 11.0733 50.95 12.32C49.41 13.4933 48.0167 15.29 46.77 17.71C46.1834 17.7833 45.67 18.04 45.23 18.48C44.79 18.92 44.3867 19.36 44.02 19.8L44.68 20.68L43.47 21.45L42.7 23.65C41.7467 24.31 40.61 25.4467 39.29 27.06C38.0434 28.6733 36.6867 30.5067 35.22 32.56C33.8267 34.54 32.47 36.4833 31.15 38.39C29.9034 40.2233 28.84 41.69 27.96 42.79C30.0867 43.01 32.25 43.2667 34.45 43.56C36.7234 43.8533 38.8867 44 40.94 44C42.3334 44 43.6534 44.4033 44.9 45.21L44.24 45.76C44.3867 45.8333 44.6434 45.87 45.01 45.87C45.3767 45.87 45.7067 45.87 46 45.87C46.2934 45.7967 46.5867 45.7233 46.88 45.65L47.21 46.64C47.87 46.7133 48.5667 46.8233 49.3 46.97C50.1067 47.1167 50.6567 47.4833 50.95 48.07L51.94 48.18C52.82 48.6933 53.4434 49.3533 53.81 50.16C54.25 50.8933 55.02 51.2233 56.12 51.15C56.4134 51.0033 56.6334 50.93 56.78 50.93C57.3667 50.93 58.1 51.37 58.98 52.25C59.86 53.13 60.63 54.12 61.29 55.22C62.0234 56.32 62.39 57.1633 62.39 57.75C62.39 58.2633 62.28 58.7767 62.06 59.29C61.9134 59.8767 61.8034 60.4633 61.73 61.05ZM45.67 7.59C46.77 6.93 47.8334 6.08667 48.86 5.06L47.98 5.39C47.6867 5.68333 47.32 5.97667 46.88 6.27C46.5134 6.49 46.11 6.74667 45.67 7.04V7.59ZM45.23 14.3H45.34L46 13.64V13.31L45.78 12.87L45.45 13.09L45.01 14.08L45.23 14.3ZM5.96002 56.32C8.89336 56.32 11.4967 55.44 13.77 53.68C16.0434 51.9933 18.2067 50.2333 20.26 48.4C19.7467 48.2533 19.2334 48.18 18.72 48.18C18.28 48.1067 17.8034 48.0333 17.29 47.96C16.9967 48.1067 16.7767 48.18 16.63 48.18C16.3367 48.18 16.0067 48.07 15.64 47.85C14.6134 47.9233 13.5867 48.1067 12.56 48.4C11.6067 48.6933 10.6167 48.95 9.59002 49.17C9.37002 49.4633 8.85669 49.6833 8.05002 49.83C7.31669 49.9033 6.51002 50.16 5.63002 50.6C4.82336 51.04 4.12669 51.92 3.54002 53.24C3.90669 54.12 4.05336 54.8533 3.98002 55.44C3.98002 56.0267 4.64002 56.32 5.96002 56.32Z" fill="#EAEAEA"/>
<path d="M198.216 198.026C201.487 198.026 204.319 197.659 206.712 196.927C207.444 196.194 207.957 195.34 208.25 194.363C208.543 193.436 208.689 192.557 208.689 191.727C208.689 190.848 208.616 190.189 208.47 189.749C208.323 189.359 208.079 188.992 207.737 188.651C205.687 188.309 203.27 188.065 200.486 187.918C197.752 187.82 196.116 187.747 195.579 187.698C188.792 187.405 183.274 186.917 179.026 186.234C174.778 185.501 171.141 183.939 168.113 181.546C165.086 179.105 163.572 175.443 163.572 170.56C163.572 167.923 164.427 165.457 166.136 163.162C167.845 160.818 170.066 158.768 172.801 157.01C167.234 154.715 162.767 151.273 159.397 146.683C156.077 142.044 154.417 136.063 154.417 128.738C154.417 121.463 156.272 115.628 159.983 111.234C163.743 106.79 168.357 103.665 173.826 101.859C179.295 100.052 184.861 99.1486 190.525 99.1486C194.09 99.1486 197.581 99.4904 200.999 100.174C204.417 100.858 207.591 101.834 210.521 103.104L207.371 84.5001C210.35 82.6935 214.061 81.7902 218.504 81.7902C221.727 81.7902 224.729 82.3273 227.513 83.4015C230.296 84.4757 232.42 86.0138 233.885 88.0157C233.982 88.504 234.031 89.2853 234.031 90.3595C234.031 94.3634 233.299 98.8312 231.834 103.763C230.418 108.646 227.952 112.576 224.437 115.555C226.194 119.07 227.073 122.855 227.073 126.907C227.073 132.864 225.926 138.358 223.631 143.387C221.385 148.416 217.625 152.518 212.352 155.692C207.078 158.817 200.218 160.379 191.771 160.379C189.329 160.379 186.79 160.233 184.153 159.94C184.007 162.381 184.593 164.822 185.911 167.264C192.503 165.994 197.825 165.335 201.878 165.286L206.858 165.213C213.597 165.213 218.699 165.628 222.166 166.458C225.975 167.386 228.807 169.485 230.662 172.757C232.566 176.028 233.519 180.008 233.519 184.695C233.519 192.02 231.272 198.172 226.78 203.152C222.337 208.182 216.551 211.917 209.422 214.359C202.342 216.8 194.822 218.021 186.863 218.021C179.49 218.021 172.923 216.776 167.161 214.285C161.399 211.795 157.762 207.23 156.248 200.589C157.859 194.974 160.936 190.726 165.477 187.845C171.58 191.507 177.415 194.119 182.981 195.682C188.597 197.244 193.675 198.026 198.216 198.026ZM193.748 142.288C197.264 142.288 199.314 142.068 199.9 141.629C201.219 138.992 201.878 136.282 201.878 133.499C201.878 130.618 201.219 127.908 199.9 125.369C199.266 124.832 197.85 124.417 195.652 124.124C193.504 123.831 191.16 123.685 188.621 123.685C185.447 123.685 183.323 123.88 182.249 124.271C180.735 126.956 179.979 129.666 179.979 132.401C179.979 135.184 180.687 137.82 182.103 140.311C183.177 140.994 184.788 141.507 186.937 141.849C189.134 142.142 191.404 142.288 193.748 142.288Z" fill="#EAEAEA"/>
<path d="M106.224 81.2775C106.224 76.9806 107.615 73.4894 110.398 70.8038C113.23 68.1183 117.723 66.7755 123.875 66.7755C130.027 66.7755 134.495 68.1183 137.278 70.8038C140.11 73.4894 141.526 76.9806 141.526 81.2775C141.526 83.7189 140.672 85.965 138.963 88.0157C137.303 90.0665 135.105 91.7023 132.371 92.923C129.637 94.0948 126.805 94.6808 123.875 94.6808C120.701 94.6808 117.747 93.9972 115.013 92.63C112.327 91.214 110.179 89.4562 108.567 87.3566C107.005 85.257 106.224 83.2306 106.224 81.2775ZM102.635 123.172C102 120.779 101.561 118.607 101.316 116.653C101.072 114.651 100.95 112.576 100.95 110.428L101.023 108.377C102.049 107.059 103.636 105.74 105.784 104.422C107.981 103.055 110.521 101.907 113.401 100.98C116.331 100.052 119.358 99.588 122.483 99.588C129.319 99.588 134.178 101.126 137.059 104.202C139.939 107.278 141.38 112.064 141.38 118.558C141.38 122.464 140.818 127.567 139.695 133.865C138.621 140.164 137.303 146.292 135.74 152.249C134.227 158.157 132.908 162.381 131.785 164.92L131.932 165.067L142.771 161.111C144.725 162.772 146.189 164.603 147.166 166.605C148.191 168.607 148.851 170.926 149.144 173.563C149.144 173.904 148.069 175.32 145.921 177.811C143.772 180.252 140.916 182.547 137.352 184.695C133.836 186.795 129.759 187.845 125.12 187.845C120.433 187.845 116.624 186.575 113.694 184.036C110.813 181.497 109.373 177.151 109.373 170.999C109.373 163.821 109.568 156.204 109.959 148.148C110.35 140.091 110.96 132.278 111.79 124.71L102.635 123.172Z" fill="#EAEAEA"/>
<path d="M13.6455 132.181C13.6455 117.386 13.8652 106.033 14.3047 98.1232H14.2314L3.02539 96.5851C2.39062 94.7784 1.90234 92.8009 1.56055 90.6525C1.21875 88.4552 1.04785 86.3312 1.04785 84.2804C1.04785 82.7179 1.16992 81.0089 1.41406 79.1534C7.37109 77.1515 15.1592 75.6134 24.7783 74.5392C34.3975 73.4161 43.5771 72.8546 52.3174 72.8546C59.7881 72.8546 66.209 73.4406 71.5801 74.6124C76.9512 75.7355 81.4434 78.3234 85.0566 82.3761C88.7188 86.38 90.5498 92.3615 90.5498 100.32C90.5498 103.445 89.6953 106.985 87.9863 110.941C86.2773 114.847 84.0312 118.533 81.248 122C78.5137 125.418 75.6572 128.055 72.6787 129.91C76.3896 130.545 79.832 131.839 83.0059 133.792C86.2285 135.696 88.8408 138.309 90.8428 141.629C92.8447 144.901 93.8457 148.782 93.8457 153.275C93.8457 159.28 92.6982 164.456 90.4033 168.802C88.1084 173.148 84.8369 176.736 80.5889 179.568C72.2881 185.086 60.5693 187.845 45.4326 187.845C39.4756 187.845 34.1777 187.723 29.5391 187.479C24.9492 187.283 20.7012 186.893 16.7949 186.307C14.6953 174.979 13.6455 156.937 13.6455 132.181ZM55.3203 127.567C56.5898 124.002 57.6641 119.485 58.543 114.017C59.4707 108.499 60.0322 104.007 60.2275 100.54C59.9834 100.101 58.7383 99.7345 56.4922 99.4415C54.2461 99.0997 51.3408 98.9288 47.7764 98.9288C46.6533 98.9288 44.7734 99.0021 42.1367 99.1486C41.7461 110.135 41.1602 119.998 40.3789 128.738L47.7764 128.152L55.3203 127.567ZM51.6582 168.655C55.7598 168.655 58.6895 168.484 60.4473 168.143C61.668 167.41 62.7422 166.092 63.6699 164.188C64.6465 162.283 65.3789 160.208 65.8672 157.962C66.3555 155.667 66.5996 153.616 66.5996 151.81C65.7207 149.271 61.3506 148.001 53.4893 148.001C50.1689 148.001 46.3604 148.221 42.0635 148.66C40.8916 148.807 40.0127 148.88 39.4268 148.88L39.207 159.573C39.1582 160.648 39.1094 161.893 39.0605 163.309C39.0117 164.725 38.9873 166.312 38.9873 168.069C42.21 168.46 45.7256 168.655 49.5342 168.655H51.6582Z" fill="#EAEAEA"/>
<path d="M394.232 150.63H401.197V157.594H394.232V150.63ZM401.197 157.594H408.161V164.559H401.197V157.594ZM394.232 157.594H401.197V164.559H394.232V157.594ZM394.232 164.559H401.197V171.523H394.232V164.559ZM401.197 164.559H408.161V171.523H401.197V164.559ZM401.197 171.523H408.161V178.487H401.197V171.523ZM408.161 171.523H415.125V178.487H408.161V171.523ZM415.125 171.523H422.09V178.487H415.125V171.523ZM422.09 164.559H429.054V171.523H422.09V164.559ZM415.125 164.559H422.09V171.523H415.125V164.559ZM408.161 164.559H415.125V171.523H408.161V164.559ZM422.09 171.523H429.054V178.487H422.09V171.523ZM429.054 171.523H436.018V178.487H429.054V171.523ZM429.054 178.487H436.018V185.451H429.054V178.487ZM422.09 178.487H429.054V185.451H422.09V178.487ZM422.09 185.451H429.054V192.416H422.09V185.451ZM429.054 185.451H436.018V192.416H429.054V185.451ZM422.09 192.416H429.054V199.38H422.09V192.416ZM415.125 185.451H422.09V192.416H415.125V185.451ZM408.161 185.451H415.125V192.416H408.161V185.451ZM401.197 185.451H408.161V192.416H401.197V185.451ZM394.232 185.451H401.197V192.416H394.232V185.451ZM401.197 192.416H408.161V199.38H401.197V192.416ZM408.161 192.416H415.125V199.38H408.161V192.416ZM415.125 192.416H422.09V199.38H415.125V192.416ZM429.054 150.63H436.018V157.594H429.054V150.63ZM422.09 150.63H429.054V157.594H422.09V150.63ZM422.09 143.666H429.054V150.63H422.09V143.666ZM415.125 143.666H422.09V150.63H415.125V143.666ZM408.161 143.666H415.125V150.63H408.161V143.666ZM401.197 143.666H408.161V150.63H401.197V143.666ZM401.197 150.63H408.161V157.594H401.197V150.63ZM408.161 150.63H415.125V157.594H408.161V150.63ZM415.125 150.63H422.09V157.594H415.125V150.63Z" fill="#EAEAEA"/>
<path d="M380.322 185.451H387.286V192.416H380.322V185.451ZM380.322 192.416H387.286V199.38H380.322V192.416ZM373.358 192.416H380.322V199.38H373.358V192.416ZM373.358 185.451H380.322V192.416H373.358V185.451ZM366.393 192.416H373.358V199.38H366.393V192.416ZM366.393 185.451H373.358V192.416H366.393V185.451ZM359.429 185.451H366.393V192.416H359.429V185.451ZM359.429 178.487H366.393V185.451H359.429V178.487ZM359.429 171.523H366.393V178.487H359.429V171.523ZM359.429 164.559H366.393V171.523H359.429V164.559ZM359.429 157.594H366.393V164.559H359.429V157.594ZM359.429 150.63H366.393V157.594H359.429V150.63ZM366.393 171.523H373.358V178.487H366.393V171.523ZM366.393 178.487H373.358V185.451H366.393V178.487ZM366.393 164.559H373.358V171.523H366.393V164.559ZM366.393 157.594H373.358V164.559H366.393V157.594ZM366.393 129.737H373.358V136.701H366.393V129.737ZM366.393 136.701H373.358V143.666H366.393V136.701ZM366.393 143.666H373.358V150.63H366.393V143.666ZM366.393 150.63H373.358V157.594H366.393V150.63ZM359.429 143.666H366.393V150.63H359.429V143.666ZM352.465 150.63H359.429V157.594H352.465V150.63ZM373.358 150.63H380.322V157.594H373.358V150.63ZM380.322 150.63H387.286V157.594H380.322V150.63ZM359.429 136.701H366.393V143.666H359.429V136.701ZM352.465 157.594H359.429V164.559H352.465V157.594ZM373.358 157.594H380.322V164.559H373.358V157.594ZM380.322 157.594H387.286V164.559H380.322V157.594Z" fill="#EAEAEA"/>
<path d="M310.661 143.666H317.625V150.63H310.661V143.666ZM303.697 143.666H310.661V150.63H303.697V143.666ZM303.697 150.63H310.661V157.594H303.697V150.63ZM310.661 150.63H317.625V157.594H310.661V150.63ZM317.625 143.666H324.59V150.63H317.625V143.666ZM324.59 143.666H331.554V150.63H324.59V143.666ZM331.554 143.666H338.518V150.63H331.554V143.666ZM331.554 150.63H338.518V157.594H331.554V150.63ZM324.59 150.63H331.554V157.594H324.59V150.63ZM331.554 164.559H338.518V171.523H331.554V164.559ZM338.518 150.63H345.482V157.594H338.518V150.63ZM338.518 157.594H345.482V164.559H338.518V157.594ZM338.518 164.559H345.482V171.523H338.518V164.559ZM338.518 171.523H345.482V178.487H338.518V171.523ZM338.518 178.487H345.482V185.451H338.518V178.487ZM338.518 185.451H345.482V192.416H338.518V185.451ZM331.554 185.451H338.518V192.416H331.554V185.451ZM331.554 178.487H338.518V185.451H331.554V178.487ZM331.554 171.523H338.518V178.487H331.554V171.523ZM331.554 157.594H338.518V164.559H331.554V157.594ZM324.59 185.451H331.554V192.416H324.59V185.451ZM331.554 192.416H338.518V199.38H331.554V192.416ZM324.59 192.416H331.554V199.38H324.59V192.416ZM317.625 192.416H324.59V199.38H317.625V192.416ZM310.661 192.416H317.625V199.38H310.661V192.416ZM303.697 192.416H310.661V199.38H303.697V192.416ZM303.697 185.451H310.661V192.416H303.697V185.451ZM310.661 185.451H317.625V192.416H310.661V185.451ZM303.697 178.487H310.661V185.451H303.697V178.487ZM296.732 185.451H303.697V192.416H296.732V185.451ZM296.732 178.487H303.697V185.451H296.732V178.487ZM296.732 171.523H303.697V178.487H296.732V171.523ZM296.732 164.559H303.697V171.523H296.732V164.559ZM296.732 157.594H303.697V164.559H296.732V157.594ZM296.732 150.63H303.697V157.594H296.732V150.63ZM303.697 157.594H310.661V164.559H303.697V157.594ZM303.697 164.559H310.661V171.523H303.697V164.559ZM303.697 171.523H310.661V178.487H303.697V171.523ZM317.625 185.451H324.59V192.416H317.625V185.451ZM317.625 150.63H324.59V157.594H317.625V150.63Z" fill="#EAEAEA"/>
<path d="M254.929 129.737H261.893V136.701H254.929V129.737ZM247.964 129.737H254.929V136.701H247.964V129.737ZM247.964 136.701H254.929V143.666H247.964V136.701ZM254.929 136.701H261.893V143.666H254.929V136.701ZM261.893 136.701H268.857V143.666H261.893V136.701ZM261.893 129.737H268.857V136.701H261.893V129.737ZM268.857 129.737H275.821V136.701H268.857V129.737ZM275.821 129.737H282.786V136.701H275.821V129.737ZM275.821 136.701H282.786V143.666H275.821V136.701ZM268.857 136.701H275.821V143.666H268.857V136.701ZM268.857 143.666H275.821V150.63H268.857V143.666ZM275.821 143.666H282.786V150.63H275.821V143.666ZM282.786 136.701H289.75V143.666H282.786V136.701ZM282.786 143.666H289.75V150.63H282.786V143.666ZM282.786 150.63H289.75V157.594H282.786V150.63ZM282.786 157.594H289.75V164.559H282.786V157.594ZM282.786 164.559H289.75V171.523H282.786V164.559ZM282.786 171.523H289.75V178.487H282.786V171.523ZM282.786 178.487H289.75V185.451H282.786V178.487ZM282.786 185.451H289.75V192.416H282.786V185.451ZM275.821 185.451H282.786V192.416H275.821V185.451ZM275.821 178.487H282.786V185.451H275.821V178.487ZM275.821 171.523H282.786V178.487H275.821V171.523ZM275.821 164.559H282.786V171.523H275.821V164.559ZM275.821 157.594H282.786V164.559H275.821V157.594ZM275.821 150.63H282.786V157.594H275.821V150.63ZM268.857 178.487H275.821V185.451H268.857V178.487ZM268.857 185.451H275.821V192.416H268.857V185.451ZM275.821 192.416H282.786V199.38H275.821V192.416ZM268.857 192.416H275.821V199.38H268.857V192.416ZM261.893 192.416H268.857V199.38H261.893V192.416ZM261.893 185.451H268.857V192.416H261.893V185.451ZM254.929 192.416H261.893V199.38H254.929V192.416ZM247.964 192.416H254.929V199.38H247.964V192.416ZM247.964 185.451H254.929V192.416H247.964V185.451ZM254.929 185.451H261.893V192.416H254.929V185.451ZM247.964 178.487H254.929V185.451H247.964V178.487ZM241 185.451H247.964V192.416H241V185.451ZM241 178.487H247.964V185.451H241V178.487ZM241 171.523H247.964V178.487H241V171.523ZM241 164.559H247.964V171.523H241V164.559ZM241 157.594H247.964V164.559H241V157.594ZM241 150.63H247.964V157.594H241V150.63ZM241 143.666H247.964V150.63H241V143.666ZM247.964 143.666H254.929V150.63H247.964V143.666ZM241 136.701H247.964V143.666H241V136.701ZM247.964 150.63H254.929V157.594H247.964V150.63ZM247.964 157.594H254.929V164.559H247.964V157.594ZM247.964 164.559H254.929V171.523H247.964V164.559ZM247.964 171.523H254.929V178.487H247.964V171.523ZM241 192.416H247.964V199.38H241V192.416ZM241 129.737H247.964V136.701H241V129.737Z" fill="#EAEAEA"/>
<path d="M226.162 69.3583C219.51 67.4267 212.295 64.7614 205.357 64.6298C203.155 64.5858 199.703 64.5803 197.854 65.7348C194.584 64.8066 196.194 65.2197 194.472 62.8422C195.324 61.5818 194.207 60.0472 194.502 58.9693C194.994 57.1487 195.122 57.7235 195.387 55.5097C195.45 54.9858 196.06 54.2291 196.095 53.7398C201.064 55.1988 199.513 52.2792 200.679 49.05C200.894 48.4484 201.365 48.0925 201.535 47.7039C201.593 47.5579 201.645 47.4039 201.712 47.2614C203.6 47.6728 205.548 47.7845 207.461 48.0209C217.225 49.2318 228.144 51.11 237.765 52.9564C247.387 54.8029 256.98 56.8437 266.141 60.1945L255.493 42.807C254.99 40.1679 258.248 37.1802 260.762 38.6374C263.276 40.0945 268.92 51.1389 270.86 54.2962C273.31 58.2732 282.03 70.2655 281.385 74.5138C281.263 75.2967 280.261 77.0718 279.749 77.5958C278.915 78.443 277.363 77.8734 276.045 78.2548C270.836 79.7537 256.048 88.4922 251.734 87.7267C249.634 87.3537 248.711 83.3559 249.523 81.5042C250.395 79.5127 253.902 79.622 255.272 77.9373C254.645 78.205 253.966 77.9232 253.368 77.7043C244.539 74.4557 235.161 71.9774 226.164 69.3645L226.162 69.3583Z" fill="#EAEAEA"/>
</svg>
